<?xml version="1.0" standalone="no"?>
<!DOCTYPE svg PUBLIC "-//W3C//DTD SVG 20010904//EN"
 "http://www.w3.org/TR/2001/REC-SVG-20010904/DTD/svg10.dtd">
<svg version="1.0" xmlns="http://www.w3.org/2000/svg"
 width="225.000000pt" height="225.000000pt" viewBox="0 0 225.000000 225.000000"
 preserveAspectRatio="xMidYMid meet">

<g transform="translate(0.000000,225.000000) scale(0.100000,-0.100000)"
fill="#000000" stroke="none">
<path d="M10 1125 l0 -1125 1120 0 1120 0 0 1125 0 1125 -1120 0 -1120 0 0
-1125z m577 804 c95 -36 147 -161 108 -257 -61 -146 -258 -165 -349 -35 -26
37 -30 52 -30 108 0 56 4 71 30 107 40 58 95 88 161 88 28 0 64 -5 80 -11z
m1037 -504 c83 -18 138 -49 195 -110 99 -107 111 -175 111 -627 l0 -358 -175
0 -174 0 -3 348 c-3 326 -4 349 -23 381 -42 72 -119 98 -198 67 -52 -19 -89
-56 -114 -111 -16 -35 -18 -77 -21 -362 l-3 -323 -170 0 -169 0 2 538 3 537
163 3 162 2 0 -69 0 -70 49 49 c57 57 115 89 191 106 73 16 93 16 174 -1z
m-944 -555 l0 -540 -170 0 -170 0 0 540 0 540 170 0 170 0 0 -540z"/>
</g>
</svg>
